<svg xmlns="http://www.w3.org/2000/svg" width="256" height="256" fill="none" viewBox="0 0 256 256">
<!-- SVG created with Arrow, by QuiverAI (https://quiver.ai) -->
  <path d="m200.7 108.4c8.72-30.2 14.4-56.01 14.76-78.16 0.18-9.64-4.27-17.7-15.34-20.1-4.89-1.08-8.24-1.42-12.41-1.42-14.88 0-26.29 8.22-40.13 29.31-16.19 25.09-24.13 46.14-46.59 101l32.49-6.57c13.56-32 31.4-68.04 43.6-90.57 7.77-11.76 17.82-21.9 30.84-22.9 6.01-0.47 7.44 5.36 6.97 13.04-1.35 18.71-7.7 45.75-14.19 76.33z" fill="url(#paint0_linear_315_1049)"/>
  <path d="m195.6 137.3c-2.42 22.83-4.45 35.12-4.45 52.52-0.34 26.05 4.55 48.1 18.66 50.92-5.91 5.98-12.91 6.78-18.66 6.5-18.14-0.91-28.87-17.14-28.87-53.49 0-13.23 1.4-27.96 2.8-44.32l30.52-12.13z" fill="url(#paint1_linear_315_1049)"/>
  <path d="m84.29 175.7c-13.92 27.22-31 52.99-45.8 53.48-6.75 0.25-9.98-2.34-10.57-12-0.99 11.97 2.85 21.94 10.81 28.99 18.99 1.94 36.35-9.95 50.95-30.28 10.03-14.13 18.36-31 28.29-49.65l-33.68 9.46z" fill="url(#paint2_linear_315_1049)"/>
  <path d="m247.1 78.72c1.59 12.45-14.91 29.26-43.25 39.21-27.78 10.11-47.76 10.98-74.49 15.66-30.9 5.4-51.56 10.74-64.72 17.16-32.07 14.19-56.5 35.14-56.54 62.16-0.04 16.8 12.71 32.96 34.86 34.32-10.17-3.11-14.97-11.48-15.47-23.27-0.73-18.25 10.21-32 25.75-40.46 16.98-10.03 32.47-15.22 75.93-25.53 25.22-5.12 32.57-7.01 52.72-14.37 32.01-12.41 70.9-33.18 66.16-60.89l-0.95-3.99z" fill="url(#paint3_linear_315_1049)"/>
  <path d="m188.8 29.05c0.52 9.14-8.56 44.84-18.35 89.61l30.12-10.58c9.28-30.64 14.91-57.17 14.7-78.82-0.14-7.01-3.15-10.75-8.51-10.1-7.16 0.62-13.09 4.65-17.96 9.89z" fill="url(#paint4_linear_315_1049)"/>
  <defs>
    <linearGradient id="paint0_linear_315_1049" x1="158" x2="158" y1="9.412" y2="139.1" gradientUnits="userSpaceOnUse">
      <stop stop-color="#D39BFF" offset="0"/>
      <stop stop-color="#C387F2" offset=".5104"/>
      <stop stop-color="#8552B6" offset="1"/>
    </linearGradient>
    <linearGradient id="paint1_linear_315_1049" x1="186" x2="186" y1="137.3" y2="247.3" gradientUnits="userSpaceOnUse">
      <stop stop-color="#8A4EB0" offset="0"/>
      <stop stop-color="#CB91F0" offset=".5104"/>
      <stop stop-color="#D9A2FF" offset="1"/>
    </linearGradient>
    <linearGradient id="paint2_linear_315_1049" x1="72.95" x2="72.95" y1="166.3" y2="246.4" gradientUnits="userSpaceOnUse">
      <stop stop-color="#9A62CC" offset="0"/>
      <stop stop-color="#8A54BE" offset="1"/>
    </linearGradient>
    <linearGradient id="paint3_linear_315_1049" x1="130.1" x2="130.1" y1="78.72" y2="247.4" gradientUnits="userSpaceOnUse">
      <stop stop-color="#B377E6" offset="0"/>
      <stop stop-color="#C086E5" offset=".5104"/>
      <stop stop-color="#9963C8" offset="1"/>
    </linearGradient>
    <linearGradient id="paint4_linear_315_1049" x1="192.9" x2="192.9" y1="19.02" y2="118.7" gradientUnits="userSpaceOnUse">
      <stop stop-color="#7B459F" offset="0"/>
      <stop stop-color="#B377E6" offset=".5104"/>
      <stop stop-color="#D7A1FF" offset="1"/>
    </linearGradient>
  </defs>
</svg>